<svg width="578" height="578" viewBox="0 0 578 578" fill="none" xmlns="http://www.w3.org/2000/svg">
<mask id="mask0_561_2214" style="mask-type:alpha" maskUnits="userSpaceOnUse" x="0" y="0" width="578" height="578">
<circle cx="289" cy="289" r="289" fill="#D9D9D9"/>
</mask>
<g mask="url(#mask0_561_2214)">
<rect x="-457" y="-2709" width="3074" height="4096" fill="#FFE078"/>
</g>
<path d="M305.86 390.138C307.026 387.208 309.339 383.153 310.744 380.03C316.286 367.5 322.056 355.072 328.049 342.751L368.958 256.406C371.285 251.498 373.693 246.034 376.045 241.251L382.705 227.427C384.898 222.808 386.833 219.385 388.043 214.208C391.588 199.051 377.913 196.336 366.71 193.172C365.135 192.727 361.836 192.121 360.834 190.646C360.921 190.283 360.843 190.261 361.201 190.054C363.454 188.751 431.825 188.696 435.135 189.669C435.708 190.254 435.56 189.91 435.587 190.74C434.57 192.254 426.337 193.78 424.21 194.33C406.382 198.941 401.107 214.27 393.525 228.992C390.02 235.795 386.615 243.618 383.003 250.573C378.27 259.682 374.278 268.892 369.893 278.188L322.553 378.328L298.908 428.193C296.177 433.86 293.542 439.563 290.897 445.265C289.109 449.123 288.187 448.155 285.087 448.303C278.875 448.595 277.482 445.4 275.07 440.345C273.189 436.403 271.602 431.868 269.747 427.718C259.687 404.948 249.857 382.078 240.259 359.108L195.549 256.656L184.571 231.09C180.458 221.642 175.186 208.417 168.135 201.018C163.623 196.497 156.61 194.799 150.568 193.406C148.802 192.999 143.521 192.154 143 190.306C145.783 188.636 175.535 189.307 180.669 189.321L218.969 189.088L240.329 189.066C245.28 189.046 250.297 188.916 255.228 189.311C256.364 189.402 258.358 189.66 258.238 191.066C257.729 191.708 256.464 192.601 255.693 192.791C245.885 195.01 230.711 197.334 232.77 211.122C233.979 219.211 238.576 230.15 241.829 237.727C243.268 240.865 245.429 246.424 246.771 249.055C267.145 295.796 286.844 342.829 305.86 390.138Z" fill="black"/>
</svg>
