<svg width="124" height="46" viewBox="0 0 124 46" fill="none" xmlns="http://www.w3.org/2000/svg">
<g filter="url(#filter0_d_563_4761)">
<path d="M55.6797 7.11868H55.7132C56.3464 7.01963 57.4725 6.32659 58.0409 6C57.9315 7.33646 58.0145 9.29827 58.0652 10.669L58.5719 10.6896C58.4066 10.7566 58.1529 10.8252 58.1221 11.0138C57.9167 12.2693 57.9782 14.6964 58.0377 15.8926C58.0356 15.8481 58.1006 15.9862 58.1006 15.9862L58.1191 16.0675C58.1191 16.0675 58.1225 16.0885 58.1191 16.1141C57.9939 17.059 57.9064 29.6591 58.0726 30.1542L58.0698 30.2794C58.0014 31.097 57.8908 32.523 58.3769 33.2264C58.6829 33.6689 59.5755 33.319 59.9526 33.6537L59.9811 33.8741C59.8541 33.9669 56.1886 34.481 55.7419 35.0633C55.6712 35.1555 55.6614 35.096 55.5408 35.2045C55.3735 35.1748 55.4303 35.1912 55.2919 35.0363C55.2919 35.0363 55.2234 35.113 55.159 35.0731C54.9062 34.9164 55.0181 34.9364 54.7411 34.9869C54.6415 35.0363 54.5977 35.0633 54.4496 35.0633C54.307 35.0307 55.1749 35 55 35C54.2458 35.0443 55.2549 35.0429 54.5 35C55.1555 35.0362 55.2097 34.7686 54.5 35C54.859 35.0247 54.8542 34.9036 55.1507 34.692C55.4803 34.2296 55.3727 32.8985 55.3646 32.2752C54.2254 33.7256 52.5085 35.0122 50.5886 35.0179C48.8477 35.0322 47.1737 34.3483 45.941 33.119C41.2928 28.4707 44.2161 18.3051 51.4401 18.5817C52.9633 18.6401 54.2794 18.9375 55.372 20.0538C55.3425 18.2212 55.3029 16.3759 55.2885 14.5435C55.2761 12.9783 55.4403 11.3908 55.3315 9.82121C55.3108 9.52186 55.2772 9.21688 55.1036 8.96286C54.5055 8.08138 54.116 8.38132 53.3399 8.20751L53.2742 8.09837C53.6707 7.72923 55.2338 7.57089 55.6546 7.11868C55.7456 7.09085 55.6009 7.19217 55.6797 7.11868ZM50.9333 33.3667C53.3261 33.895 54.1773 32.8806 55.349 31.0307C55.4321 28.7062 55.3168 26.3575 55.3789 24.0328C55.4162 22.6399 55.3092 21.4802 54.304 20.4162C53.6077 19.6496 52.2892 19.1378 51.2512 19.1855C49.8028 19.3989 48.758 19.779 47.8796 21.0317C45.6581 24.2003 46.0218 30.306 49.2739 32.6185C49.7722 32.9752 50.3361 33.2295 50.9333 33.3667Z" fill="white"/>
<path d="M33.381 18.6055C34.7681 18.4221 36.8532 18.9734 37.9161 19.8555C40.1134 21.6791 39.9651 22.752 40.267 25.0891C39.5393 25.0381 38.3618 25.0741 37.5908 25.0721C35.8732 25.0624 34.1555 25.0638 32.4378 25.0764C31.4915 25.0844 30.1305 25.1392 29.2282 25.0366C29.2248 27.3637 29.6319 29.6696 31.2852 31.4151C33.5282 33.7831 36.8781 33.7991 39.2006 31.5789C39.6391 31.1713 39.877 30.6558 40.3688 30.2106L40.489 30.2342C40.5835 30.6928 39.6573 32.0303 39.3439 32.4293C36.8921 35.55 32.5822 35.8695 29.545 33.4319C24.4632 29.3533 26.4139 19.2393 33.381 18.6055ZM29.2792 24.339C30.5547 24.3733 31.8308 24.3845 33.1068 24.3728C34.4297 24.3709 35.9895 24.3294 37.2933 24.3809C37.2552 23.2705 37.2796 22.3127 36.7918 21.2696C36.176 19.9529 34.995 19.0944 33.497 19.1846C30.4267 19.7786 29.8307 21.5933 29.2792 24.339Z" fill="white"/>
<path d="M101.053 18.6073C102.698 18.4889 104.614 19.1531 105.798 20.2933C107.287 21.7272 107.539 23.1501 107.609 25.0994L100.938 25.0779C99.5945 25.0865 97.9825 25.1481 96.6658 25.072C96.8146 26.6306 96.6927 27.4351 97.256 29.0123C98.7259 33.1314 103.139 34.7836 106.614 31.5367C107.2 31.0033 107.326 30.4636 108.001 29.9586C107.237 32.5748 105.094 34.6306 102.34 34.9381C92.0444 36.0882 91.1741 19.5161 101.053 18.6073ZM96.7162 24.3513L100.572 24.3694L104.757 24.3666C104.735 22.744 104.669 21.4006 103.427 20.1153C102.859 19.5266 101.849 19.1627 101.032 19.1848C100.991 19.1858 100.952 19.1875 100.912 19.1899C97.8026 19.8574 97.3435 21.6011 96.7162 24.3513Z" fill="white"/>
<path d="M64.7137 30.3754L64.7137 30.3766L64.7364 30.5163C64.8928 32.4856 65.4301 34.003 67.4751 34.7392L67.84 34.9586C70.6089 34.9867 71.3977 35.1352 73.6932 33.1535C74.0514 32.8444 74.7863 32.1047 75.1353 31.8487C75.1185 32.634 75.3161 34.3099 74.8317 34.8792L74.8696 34.9563C75.8366 35.0463 77.208 34.3389 78.1607 34.1141C78.5568 34.0207 79.3917 33.9023 79.702 33.709L79.7264 33.632C79.0941 33.161 77.7478 33.6736 77.731 32.4569C77.6654 27.8716 77.5175 23.0837 77.6596 18.5078C76.4672 18.9208 75.2951 19.3122 74.0523 19.5337L74.0372 19.5364C73.734 19.5904 73.4415 19.6425 73.1668 19.7893L73.1979 19.9009C74.0329 20.2774 74.3365 20.2763 74.9175 20.9599C75.0647 22.159 75.0764 23.5224 75.0621 24.7372C75.0369 26.8028 75.1269 28.9315 75.0428 30.9905C74.1338 32.321 73.1332 32.9929 71.607 33.3585C69.6293 33.8322 67.5221 32.5305 67.3758 30.4343C67.1614 27.3606 67.3624 24.0701 67.296 20.9725C67.2808 20.2563 67.5474 19.2458 67.4532 18.6285C66.9411 18.5038 65.4183 19.1851 64.7809 19.3028C64.3101 19.3898 62.8898 19.517 62.5703 19.719L62.5838 19.8238C63.4196 20.2441 64.2251 19.8866 64.6346 21.0931C64.9322 21.9705 64.7508 28.9496 64.7137 30.3754Z" fill="white"/>
<path d="M16.8236 34.9977L16.4422 34.9673C15.8071 34.5381 11.6403 23.7704 10.8273 22.1695C9.87596 20.2963 10.371 19.9471 8.02716 19.2577L8 19.166C8.63409 18.9075 14.8033 18.8713 15.1658 19.2167C14.7825 19.7439 14.0018 19.2919 13.302 19.7945C13.0574 20.1192 13.0711 20.5997 13.2365 20.9329C13.9409 22.3528 16.7724 30.3637 17.5983 31.1516L17.732 31.1055L17.7566 31.0521C17.9544 30.6121 18.0934 30.1224 18.2786 29.6653L19.5664 26.5671C20.1577 25.1234 20.7761 23.6823 21.2937 22.2088C21.5051 21.6068 21.7577 20.6803 21.5003 20.0635C21.304 19.5934 19.7155 19.512 19.5682 19.145C19.9417 18.8872 24.1671 18.9657 24.8333 19.0997L24.9081 19.2382C24.7211 19.4203 24.3246 19.4705 24.0632 19.5645C22.9784 19.9477 22.7946 21.1119 22.3376 22.0121C20.2702 26.084 18.9223 30.6627 16.9085 34.7259L16.9673 34.8551L16.8236 34.9977Z" fill="white"/>
<path d="M86.7763 15.2461L86.8881 15.3392C87.0319 15.6114 86.9092 18.4647 86.8982 18.9845C88.0443 19.0062 89.2283 18.9185 90.3727 18.9837C90.7973 19.008 90.8629 19.0331 91.0908 19.3003L91.0496 19.466C90.5198 19.8622 87.6113 19.7576 86.889 19.6594C86.9907 23.3877 86.7519 27.1733 86.9428 30.9047C87.0782 32.6174 88.0283 33.3734 89.7 33.414C90.9411 33.4441 91.5709 32.0678 92.3933 31.9697L92.4294 32.0812C92.2553 32.522 92.0115 32.8226 91.7357 33.2031C91.676 33.2681 91.6155 33.3324 91.5532 33.3961C90.2978 34.6942 88.849 35.236 87.0269 34.9274C85.8699 34.7316 84.617 33.5378 84.3967 32.3705C84.0839 30.7157 84.2033 28.8315 84.2066 27.1275L84.1999 19.746C83.8072 19.7503 82.1263 19.853 81.9531 19.55C82.2869 19.2853 83.0488 19.1489 83.4709 18.9293C85.0769 18.0943 85.927 16.7317 86.7763 15.2461Z" fill="white"/>
<circle cx="114" cy="33" r="2" fill="white"/>
</g>
<defs>
<filter id="filter0_d_563_4761" x="0" y="0" width="124" height="45.2031" filterUnits="userSpaceOnUse" color-interpolation-filters="sRGB">
<feFlood flood-opacity="0" result="BackgroundImageFix"/>
<feColorMatrix in="SourceAlpha" type="matrix" values="0 0 0 0 0 0 0 0 0 0 0 0 0 0 0 0 0 0 127 0" result="hardAlpha"/>
<feOffset dy="2"/>
<feGaussianBlur stdDeviation="4"/>
<feColorMatrix type="matrix" values="0 0 0 0 0 0 0 0 0 0 0 0 0 0 0 0 0 0 0.5 0"/>
<feBlend mode="normal" in2="BackgroundImageFix" result="effect1_dropShadow_563_4761"/>
<feBlend mode="normal" in="SourceGraphic" in2="effect1_dropShadow_563_4761" result="shape"/>
</filter>
</defs>
</svg>
